<svg width="75" height="75" viewBox="0 0 75 75" fill="none" xmlns="http://www.w3.org/2000/svg">
<path d="M74.9361 1.8047C74.9361 1.75392 74.9361 1.69532 74.9166 1.64454C74.9049 1.58595 74.8853 1.52345 74.8775 1.46485C74.8658 1.41407 74.8463 1.36329 74.8267 1.31641C74.8072 1.25782 74.776 1.19532 74.7486 1.13672C74.7291 1.10547 74.7174 1.06641 74.7095 1.03516C74.7095 1.02344 74.69 1.01563 74.69 1.00391C74.6588 0.945318 74.6197 0.894531 74.5806 0.832031C74.5494 0.792968 74.522 0.742187 74.4908 0.710941C74.4517 0.66016 74.4127 0.621097 74.3697 0.582031C74.3306 0.542968 74.2916 0.503906 74.2408 0.460941C74.2017 0.429691 74.151 0.402348 74.1119 0.371098C74.0611 0.332036 74.0103 0.300786 73.9517 0.261718C73.94 0.261718 73.9322 0.242187 73.9127 0.230468C73.8736 0.210937 73.8424 0.199218 73.8033 0.179687C73.7447 0.148437 73.6939 0.128906 73.6314 0.109374C73.5728 0.089843 73.5103 0.0703118 73.4595 0.0585928C73.4087 0.0468738 73.358 0.0273423 73.2994 0.0195303C73.2408 0.0078113 73.1783 0 73.108 0H72.9478C72.8892 0 72.8189 -2.0396e-07 72.7564 0.0117178C72.7056 0.0117178 72.6548 0.011718 72.5962 0.03125C72.5376 0.042968 72.4751 0.0624995 72.4048 0.0703115C72.3658 0.0820305 72.3267 0.0898425 72.2837 0.101562L1.35373 24.3436C0.705286 24.5623 0.213126 25.1131 0.0529263 25.785C-0.107274 26.4568 0.103707 27.1639 0.584176 27.6561L17.5452 44.6171L15.846 56.8281C15.7561 57.4492 15.9671 58.0781 16.4163 58.5195C16.7952 58.8984 17.3069 59.1093 17.8265 59.1093C17.9163 59.1093 18.0062 59.1093 18.1077 59.0898L30.3187 57.3906L47.2797 74.3516C47.6586 74.7305 48.1704 74.9414 48.6899 74.9414C48.8384 74.9414 48.9907 74.9219 49.1392 74.8906C49.811 74.7305 50.358 74.2422 50.5806 73.5898L74.8346 2.62483C74.8346 2.62483 74.8541 2.5467 74.8658 2.50374C74.8853 2.44514 74.8971 2.39436 74.9049 2.33186C74.9166 2.27326 74.9244 2.21077 74.9244 2.15217C74.9244 2.09358 74.9361 2.04279 74.9361 1.98029C74.9361 1.92169 74.9361 1.8592 74.9244 1.8006L74.9361 1.8047ZM21.5341 44.9647L61.0031 13.9057L29.9441 53.3747L20.1629 54.7341L21.5223 44.9529L21.5341 44.9647Z" fill="#181818"/>
</svg>
